<svg width="12" height="9" viewBox="0 0 12 9" fill="none" xmlns="http://www.w3.org/2000/svg">
<path d="M11.3498 1.00421C10.9522 1.18942 10.4487 1.36326 9.99753 1.42105C10.4564 1.13495 11.1844 0.539053 11.3498 0C10.9211 0.264789 10.1458 0.547579 9.64008 0.649895C9.2362 0.199895 8.66013 0 8.02186 0C6.79579 0 5.94071 1.09184 5.94071 2.36842V3.31579C4.13768 3.31579 2.37972 1.87247 1.28573 0.473684C1.08792 0.82624 0.98407 1.22825 0.985078 1.63753C0.985078 2.49916 1.73829 3.37358 2.33465 3.78947C1.97089 3.77763 1.28213 3.48584 0.982374 3.31579V3.34279C0.982374 4.464 1.73108 5.22521 2.74574 5.43742C2.56048 5.49095 2.33465 5.68421 1.46559 5.68421C1.74776 6.60079 3.16629 7.08537 4.13768 7.10526C3.3777 7.72437 2.02272 8.05263 0.982374 8.05263C0.802522 8.05263 0.705158 8.06305 0.531616 8.04174C1.51337 8.69542 2.88457 9 4.13768 9C8.22019 9 10.4483 5.72305 10.4483 2.66684C10.4483 2.56642 10.4451 2.23011 10.4402 2.13158C10.8765 1.80853 11.0532 1.47032 11.3498 1.00421Z" fill="#313131"/>
</svg>
