<svg width="99" height="33" viewBox="0 0 99 33" fill="none" xmlns="http://www.w3.org/2000/svg">
<path d="M41.9378 16.9766C41.9378 21.6178 38.307 25.0378 33.8511 25.0378C29.3952 25.0378 25.7644 21.6178 25.7644 16.9766C25.7644 12.3026 29.3952 8.91528 33.8511 8.91528C38.307 8.91528 41.9378 12.3026 41.9378 16.9766ZM38.3979 16.9766C38.3979 14.0762 36.2935 12.0918 33.8511 12.0918C31.4088 12.0918 29.3044 14.0762 29.3044 16.9766C29.3044 19.8478 31.4088 21.8613 33.8511 21.8613C36.2935 21.8613 38.3979 19.8442 38.3979 16.9766Z" fill="#A1A89D"/>
<path d="M59.3834 16.9766C59.3834 21.6178 55.7525 25.0378 51.2967 25.0378C46.8408 25.0378 43.21 21.6178 43.21 16.9766C43.21 12.3063 46.8408 8.91528 51.2967 8.91528C55.7525 8.91528 59.3834 12.3026 59.3834 16.9766ZM55.8434 16.9766C55.8434 14.0762 53.739 12.0918 51.2967 12.0918C48.8543 12.0918 46.7499 14.0762 46.7499 16.9766C46.7499 19.8478 48.8543 21.8613 51.2967 21.8613C53.739 21.8613 55.8434 19.8442 55.8434 16.9766Z" fill="#A1A89D"/>
<path d="M76.102 9.4023V23.8748C76.102 29.8281 72.5911 32.2595 68.4405 32.2595C64.5335 32.2595 62.1819 29.6463 61.2951 27.5093L64.3772 26.2263C64.926 27.5383 66.2707 29.0866 68.4369 29.0866C71.0937 29.0866 72.7401 27.4475 72.7401 24.3618V23.2024H72.6165C71.8242 24.1801 70.2977 25.0342 68.3715 25.0342C64.3408 25.0342 60.6482 21.5233 60.6482 17.0056C60.6482 12.4553 64.3408 8.91528 68.3715 8.91528C70.2941 8.91528 71.8206 9.76939 72.6165 10.718H72.7401V9.40594H76.102V9.4023ZM72.9909 17.0056C72.9909 14.1671 71.0973 12.0918 68.6877 12.0918C66.2453 12.0918 64.1991 14.1671 64.1991 17.0056C64.1991 19.8151 66.2453 21.8613 68.6877 21.8613C71.0973 21.8613 72.9909 19.8151 72.9909 17.0056Z" fill="#A1A89D"/>
<path d="M81.6446 0.919434V24.5435H78.1919V0.919434H81.6446Z" fill="#A1A89D"/>
<path d="M95.1009 19.6302L97.8486 21.462C96.9617 22.774 94.8247 25.0347 91.1321 25.0347C86.5526 25.0347 83.1326 21.4947 83.1326 16.9734C83.1326 12.1795 86.5817 8.91211 90.7359 8.91211C94.9192 8.91211 96.9654 12.2413 97.6341 14.0404L98.0012 14.9562L87.225 19.4194C88.05 21.0367 89.333 21.8618 91.1321 21.8618C92.9348 21.8618 94.185 20.9749 95.1009 19.6302ZM86.6435 16.7299L93.847 13.7387C93.4509 12.7319 92.2587 12.0305 90.8558 12.0305C89.0568 12.0305 86.5526 13.6188 86.6435 16.7299Z" fill="#A1A89D"/>
<path d="M12.695 14.8796V11.4595H24.2199C24.3326 12.0556 24.3907 12.7607 24.3907 13.5239C24.3907 16.0898 23.6893 19.2627 21.4286 21.5234C19.2298 23.8131 16.4203 25.0343 12.6986 25.0343C5.80038 25.0343 -0.000244141 19.4154 -0.000244141 12.5171C-0.000244141 5.6189 5.80038 0 12.6986 0C16.5148 0 19.2334 1.4974 21.276 3.44912L18.8627 5.86241C17.398 4.48858 15.4136 3.42004 12.695 3.42004C7.6576 3.42004 3.71783 7.47976 3.71783 12.5171C3.71783 17.5545 7.6576 21.6142 12.695 21.6142C15.9624 21.6142 17.8232 20.3022 19.0153 19.1101C19.9821 18.1433 20.6182 16.7622 20.8689 14.8759L12.695 14.8796Z" fill="#A1A89D"/>
</svg>
